<?xml version="1.0" encoding="UTF-8"?>
<svg xmlns="http://www.w3.org/2000/svg" xmlns:xlink="http://www.w3.org/1999/xlink" width="389px" height="100px" viewBox="0 0 389 100" version="1.1">
  <g id="surface1">
    <path style=" stroke:none;fill-rule:evenodd;fill:rgb(100%,100%,100%);fill-opacity:1;" d="M 136.171875 0.0351562 L 110.007812 0.0351562 L 101.5625 33.347656 L 69.222656 33.347656 L 77.464844 0.0351562 L 66.957031 0.0351562 L 41.828125 99.964844 L 52.539062 99.964844 L 61.597656 63.394531 L 94.152344 63.394531 L 84.875 99.964844 L 111.042969 99.964844 Z M 136.171875 0.0351562 "></path>
    <path style=" stroke:none;fill-rule:evenodd;fill:rgb(100%,100%,100%);fill-opacity:1;" d="M 38.9375 99.964844 L 29.875 99.964844 L 54.804688 0.0351562 L 64.070312 0.0351562 Z M 38.9375 99.964844 "></path>
    <path style=" stroke:none;fill-rule:evenodd;fill:rgb(100%,100%,100%);fill-opacity:1;" d="M 26.988281 99.964844 L 19.164062 99.964844 L 44.296875 0.0351562 L 52.128906 0.0351562 Z M 26.988281 99.964844 "></path>
    <path style=" stroke:none;fill-rule:evenodd;fill:rgb(100%,100%,100%);fill-opacity:1;" d="M 16.070312 33.347656 L 12.574219 33.347656 L 4.949219 63.394531 L 8.660156 63.394531 Z M 16.070312 33.347656 "></path>
    <path style=" stroke:none;fill-rule:evenodd;fill:rgb(100%,100%,100%);fill-opacity:1;" d="M 23.902344 33.347656 L 16.277344 63.394531 L 11.335938 63.394531 L 18.960938 33.347656 Z M 23.902344 33.347656 "></path>
    <path style=" stroke:none;fill-rule:evenodd;fill:rgb(100%,100%,100%);fill-opacity:1;" d="M 33.175781 33.347656 L 25.550781 63.394531 L 19.164062 63.394531 L 26.78125 33.347656 Z M 33.175781 33.347656 "></path>
    <path style=" stroke:none;fill-rule:evenodd;fill:rgb(100%,100%,100%);fill-opacity:1;" d="M 0 63.394531 L 2.273438 63.394531 L 9.683594 33.347656 L 7.625 33.347656 Z M 0 63.394531 "></path>
    <path style=" stroke:none;fill-rule:nonzero;fill:rgb(100%,100%,100%);fill-opacity:1;" d="M 205.15625 99.964844 L 204.625 21.417969 L 160.632812 21.417969 L 126.375 99.964844 L 151.832031 99.964844 L 158.367188 82.839844 L 180.628906 82.839844 L 179.828125 99.964844 Z M 163.832031 68.214844 L 174.363281 40.503906 L 182.765625 40.503906 L 181.300781 68.214844 Z M 163.832031 68.214844 "></path>
    <path style=" stroke:none;fill-rule:nonzero;fill:rgb(100%,100%,100%);fill-opacity:1;" d="M 240.167969 76.75 C 240.167969 81.625 244.464844 84.066406 253.058594 84.066406 C 261.65625 84.066406 265.941406 81.878906 265.941406 77.5 C 265.941406 75.164062 264.480469 73.257812 261.542969 71.777344 C 258.605469 70.296875 255.046875 69.0625 250.859375 68.0625 C 246.675781 67.078125 242.480469 65.925781 238.292969 64.625 C 234.109375 63.320312 230.546875 61.265625 227.609375 58.476562 C 224.675781 55.683594 223.210938 52.203125 223.210938 48.03125 C 223.210938 30.296875 237.15625 21.425781 265.046875 21.425781 C 275.238281 21.425781 282.945312 22.996094 288.164062 26.148438 C 293.386719 29.289062 296.003906 33.652344 296.003906 39.238281 C 296.003906 41.289062 295.679688 43.25 295.035156 45.117188 C 294.382812 46.996094 293.722656 48.3125 293.03125 49.09375 L 291.996094 50.367188 L 269.066406 50.367188 C 270.96875 48.742188 271.917969 46.695312 271.917969 44.21875 C 271.917969 39.625 268.246094 37.328125 260.910156 37.328125 C 251.671875 37.328125 247.046875 39.734375 247.046875 44.539062 C 247.046875 46.941406 248.511719 48.847656 251.445312 50.257812 C 254.382812 51.671875 257.945312 52.785156 262.128906 53.601562 C 266.316406 54.417969 270.527344 55.421875 274.761719 56.621094 C 278.992188 57.828125 282.574219 59.816406 285.507812 62.609375 C 288.445312 65.402344 289.917969 69.023438 289.917969 73.472656 C 289.917969 82.449219 286.636719 89.109375 280.074219 93.449219 C 273.511719 97.796875 263.40625 99.972656 249.761719 99.972656 C 236.113281 99.972656 226.789062 97.996094 221.785156 94.035156 C 218.066406 91.070312 216.210938 86.972656 216.210938 81.742188 C 216.210938 79.765625 216.472656 77.605469 216.984375 75.273438 L 217.375 73.578125 L 240.691406 73.578125 L 240.429688 74.851562 C 240.25 75.5625 240.167969 76.195312 240.167969 76.757812 Z M 240.167969 76.75 "></path>
    <path style=" stroke:none;fill-rule:nonzero;fill:rgb(100%,100%,100%);fill-opacity:1;" d="M 389 21.417969 L 372.203125 99.964844 L 348.066406 99.964844 L 354.203125 71.601562 L 328.203125 71.601562 L 322.210938 99.964844 L 298.074219 99.964844 L 315.011719 21.417969 L 339.007812 21.417969 L 331.800781 54.585938 L 357.800781 54.585938 L 364.996094 21.417969 Z M 389 21.417969 "></path>
  </g>
</svg>
