<?xml version="1.0" encoding="UTF-8"?>
<svg xmlns="http://www.w3.org/2000/svg" fill="#fff" id="_图层_1" data-name="图层 1" viewBox="0 0 417.3 131">
  <defs>
    <style>
      .cls-1 {
        fill-rule: evenodd;
      }
    </style>
  </defs>
  <g>
    <polygon class="cls-1" points="146.08 0 118.01 0 108.95 43.67 74.26 43.67 83.1 0 71.83 0 44.87 131 56.36 131 66.08 83.06 101 83.06 91.05 131 119.12 131 146.08 0"></polygon>
    <g>
      <polygon class="cls-1" points="41.77 131 32.05 131 58.79 0 68.73 0 41.77 131"></polygon>
      <polygon class="cls-1" points="28.95 131 20.56 131 47.52 0 55.92 0 28.95 131"></polygon>
    </g>
    <g>
      <polygon class="cls-1" points="17.24 43.67 13.49 43.67 5.31 83.06 9.29 83.06 17.24 43.67"></polygon>
      <polygon class="cls-1" points="25.64 43.67 17.46 83.06 12.16 83.06 20.34 43.67 25.64 43.67 25.64 43.67"></polygon>
      <polygon class="cls-1" points="35.59 43.67 27.41 83.06 20.56 83.06 28.73 43.67 35.59 43.67"></polygon>
      <polygon class="cls-1" points="0 83.06 2.44 83.06 10.39 43.67 8.18 43.67 0 83.06 0 83.06"></polygon>
    </g>
  </g>
  <path d="M220.08,131l-.57-102.97h-47.19l-36.75,102.97h27.31l7.01-22.45h23.88l-.86,22.45h27.17Zm-44.33-41.62l11.3-36.33h9.01l-1.57,36.33h-18.73Z"></path>
  <path d="M257.64,100.57c0,6.39,4.61,9.59,13.83,9.59s13.82-2.87,13.82-8.61c0-3.06-1.57-5.56-4.72-7.5-3.15-1.94-6.97-3.56-11.46-4.87-4.49-1.29-8.99-2.8-13.48-4.51-4.49-1.71-8.31-4.4-11.46-8.06-3.15-3.66-4.72-8.22-4.72-13.69,0-23.25,14.96-34.88,44.88-34.88,10.93,0,19.2,2.06,24.8,6.19,5.6,4.12,8.41,9.84,8.41,17.16,0,2.69-.35,5.26-1.04,7.71-.7,2.46-1.41,4.19-2.15,5.21l-1.11,1.67h-24.6c2.04-2.13,3.06-4.81,3.06-8.06,0-6.02-3.94-9.03-11.81-9.03-9.91,0-14.87,3.15-14.87,9.45,0,3.15,1.57,5.65,4.72,7.5,3.15,1.85,6.97,3.31,11.46,4.38,4.49,1.07,9.01,2.39,13.55,3.96,4.54,1.58,8.38,4.19,11.53,7.85,3.15,3.66,4.73,8.41,4.73,14.24,0,11.77-3.52,20.5-10.56,26.19-7.04,5.7-17.88,8.55-32.52,8.55s-24.64-2.59-30.01-7.78c-3.99-3.89-5.98-9.26-5.98-16.12,0-2.59,.28-5.42,.83-8.48l.42-2.22h25.01l-.28,1.67c-.19,.93-.28,1.76-.28,2.5Z"></path>
  <polygon points="417.3 28.03 399.28 131 373.39 131 379.97 93.82 352.08 93.82 345.65 131 319.76 131 337.93 28.03 363.67 28.03 355.94 71.51 383.83 71.51 391.55 28.03 417.3 28.03"></polygon>
</svg>
